<svg xmlns="http://www.w3.org/2000/svg" viewBox="0 0 300 300" width="300" height="300">
  <defs>
    <filter id="distress">
      <feTurbulence type="fractalNoise" baseFrequency="0.9" numOctaves="3" result="noise"/>
      <feDisplacementMap in="SourceGraphic" in2="noise" scale="4" xChannelSelector="R" yChannelSelector="G"/>
    </filter>
  </defs>
  
  <style>
    .distressed {
      filter: url(#distress);
    }
    .logo-text {
      font-family: 'Times New Roman', serif;
      font-size: 50px;
      font-weight: bold;
      text-anchor: middle;
      fill: black;
    }
  </style>

  <g class="distressed">
    <path d="M150,10 C61.6,10 10,61.6 10,150 s51.6,140 140,140 140,-51.6 140,-140 S238.4,10 150,10 z M150,260 C78.3,260 20,201.7 20,130 M150,40 c55.2,0 100,44.8 100,100 M150,230 c-44.1,0 -80,-35.9 -80,-80 M150,70 c33.1,0 60,26.9 60,60" stroke="black" stroke-width="15" fill="none" stroke-linecap="round"/>

    <path fill="#61DAFB" d="M167.3,178.6c-9.8,9.8-23.1,15.6-37.3,15.6c-29.3,0-53-23.7-53-53s23.7-53,53-53c13.4,0,25.7,5,35.2,13.2l-18,18 c-4.8-4.1-11.2-6.6-18.2-6.6c-14.9,0-27,12.1-27,27s12.1,27,27,27c7.9,0,14.9-3.4,19.8-8.8H130v-22h55.2 C185.2,154.2,178.6,167.3,167.3,178.6z"/>
    
    <path fill="#61DAFB" d="m223.9,134.1-12.7-7.4c-1.3-0.8-2.9-0.5-3.6,0.8l-15.6,27c-0.8,1.3-0.5,2.9,0.8,3.6l12.7,7.4c1.3,0.8,2.9,0.5,3.6-0.8l15.6-27C225.4,136.4,225.2,134.8,223.9,134.1z M172.5,88.4l-7.4-12.7c-0.8-1.3-2.3-2-3.6-1.2l-27,15.6 c-1.3,0.8-1.6,2.4-0.8,3.6l7.4,12.7c0.8,1.3,2.3,2,3.6,1.2l27-15.6C173.1,90.9,173.3,89.2,172.5,88.4z M141.2,192.5l15.6-27 c0.8-1.3,0.5-2.9-0.8-3.6l-12.7-7.4c-1.3-0.8-2.9-0.5-3.6,0.8l-15.6,27c-0.8,1.3-0.5,2.9,0.8,3.6l12.7,7.4 C138.8,194,140.4,193.8,141.2,192.5z M208.3,103.8c-2.8-1.6-6-1.4-8.6,0.5l-2.6,2-10.4-18c-1.6-2.8-4.7-4.4-8-3.8 l-21.7,4.2c2.6-6.6,1.4-14-3.4-19.6l-11.2-13.4c-6-7.2-16.5-8.5-24-3.4l-4.2,2.8c-1.4,1-2.4,2.4-2.8,4.1l-4.2,21.7 c-0.6,3.3,1,6.7,3.8,8.6l18,10.4-2,2.6c-2.1,2.6-2.3,6-0.5,8.6l13.4,19.6c5.6,8.2,16.5,10.9,25.7,6.8l2.8-1.2 c4.9-2.1,8.1-6.6,8.4-11.8l1.2-21.7c0.1-2.2-0.8-4.3-2.4-5.8l-10.4-10.4,11.8-1.2C206.1,114.2,211.1,106.6,208.3,103.8z"/>
    
    <text x="180" y="132" font-family="monospace" font-size="28" font-weight="bold" fill="white" text-anchor="middle">&lt;/&gt;</text>

    <text x="150" y="270" class="logo-text">
      G | DEV
    </text>
  </g>

</svg>